<?xml version="1.0" standalone="no"?>
<!DOCTYPE svg PUBLIC "-//W3C//DTD SVG 20010904//EN"
 "http://www.w3.org/TR/2001/REC-SVG-20010904/DTD/svg10.dtd">
<svg version="1.0" xmlns="http://www.w3.org/2000/svg"
 width="700.000000pt" height="700.000000pt" viewBox="0 0 700.000000 700.000000"
 preserveAspectRatio="xMidYMid meet">
<metadata>
Created by potrace 1.14, written by Peter Selinger 2001-2017
</metadata>
<g transform="translate(0.000000,700.000000) scale(0.100000,-0.100000)"
fill="#000000" stroke="none">
<path d="M2945 6568 c-33 -11 -79 -34 -103 -51 -77 -58 -124 -194 -101 -295 9
-42 21 -27 -161 -192 -51 -47 -108 -98 -125 -115 -52 -49 -133 -125 -255 -235
-63 -58 -124 -114 -136 -125 -11 -11 -46 -42 -76 -70 -30 -27 -103 -95 -162
-150 -60 -55 -114 -104 -120 -110 -6 -5 -67 -62 -136 -125 -69 -63 -130 -119
-136 -125 -10 -9 -164 -151 -234 -215 -135 -125 -226 -208 -245 -225 -12 -11
-41 -37 -63 -58 -40 -36 -44 -37 -80 -28 -135 38 -283 -28 -347 -155 -26 -51
-30 -70 -30 -139 0 -95 23 -150 87 -215 43 -43 112 -80 148 -80 12 0 25 -10
30 -22 8 -19 53 -177 65 -229 2 -9 18 -69 35 -134 17 -65 33 -125 35 -134 2
-9 11 -43 20 -76 9 -33 32 -121 51 -195 32 -123 148 -561 194 -735 10 -38 33
-124 50 -190 17 -66 42 -162 56 -212 l25 -93 -26 -35 c-82 -107 -75 -275 16
-379 104 -118 289 -137 414 -42 l33 26 1131 -376 c622 -206 1129 -379 1127
-383 -9 -14 42 -108 79 -146 143 -142 394 -109 489 64 33 61 43 137 27 211
-11 51 -11 55 12 74 14 12 85 78 158 147 74 70 154 146 179 169 25 23 99 93
165 155 66 62 136 127 155 145 38 35 257 240 300 280 263 247 416 390 470 440
19 18 63 59 98 92 l63 61 53 -16 c148 -42 306 28 368 163 75 162 -13 363 -183
416 l-63 20 -33 152 c-17 84 -34 165 -37 180 -6 38 -19 97 -66 322 -41 196
-57 274 -66 320 -3 14 -16 79 -30 145 -14 66 -31 152 -39 190 -18 87 -20 95
-46 219 -20 99 -24 116 -34 165 -49 248 -106 523 -111 535 -3 9 8 33 29 58 63
78 72 104 72 203 0 74 -4 97 -23 132 -35 66 -79 110 -140 140 -49 24 -69 28
-142 28 -72 0 -91 -4 -123 -24 -46 -28 -46 -28 -262 40 -294 93 -593 186 -865
269 -69 21 -323 100 -565 175 -242 76 -447 139 -456 142 -10 3 -19 19 -22 40
-8 50 -43 117 -80 154 -72 72 -196 94 -312 57z m158 -169 c32 -18 55 -49 67
-91 23 -80 -46 -163 -133 -160 -102 4 -161 118 -104 203 12 18 34 39 47 46 31
16 95 17 123 2z m372 -297 c200 -63 713 -222 780 -242 33 -10 265 -82 515
-160 250 -78 482 -150 515 -160 33 -10 59 -22 58 -26 0 -5 -4 -24 -6 -42 -3
-19 -8 -36 -11 -40 -5 -4 -289 -84 -349 -97 -10 -2 -151 -40 -315 -84 -322
-87 -858 -230 -882 -235 -8 -2 -42 -11 -75 -20 -33 -9 -69 -19 -80 -21 -11 -3
-49 -13 -85 -23 l-64 -19 -51 52 c-32 33 -68 58 -100 70 -27 10 -51 19 -53 20
-5 4 -10 39 -17 125 -3 47 -8 101 -10 120 -3 33 -8 93 -20 240 -3 36 -8 83
-10 105 -5 45 -13 137 -21 240 -2 39 -7 77 -9 85 -3 9 10 25 32 40 20 14 52
47 71 73 19 26 40 46 46 44 6 -2 70 -23 141 -45z m-571 -92 c32 -17 69 -30 82
-30 12 0 25 -3 28 -8 2 -4 7 -50 11 -102 4 -52 8 -105 10 -117 2 -12 6 -57 10
-100 3 -43 8 -100 10 -128 3 -27 7 -75 9 -105 3 -30 8 -80 10 -110 3 -30 8
-84 11 -120 3 -36 8 -79 10 -95 4 -26 1 -33 -29 -49 -79 -42 -149 -139 -159
-219 -3 -21 -7 -39 -8 -41 -4 -2 -328 -84 -369 -92 -13 -3 -67 -16 -120 -30
-52 -14 -104 -27 -115 -30 -11 -2 -306 -76 -655 -163 -426 -107 -638 -157
-645 -150 -7 7 3 22 30 46 22 20 89 82 149 137 60 56 118 109 130 119 12 10
70 64 130 120 60 56 118 110 130 120 18 16 61 56 242 222 18 17 79 73 135 125
57 52 133 122 169 155 36 33 119 110 185 170 66 61 142 130 169 155 27 25 61
56 76 70 57 53 243 225 273 252 18 15 32 28 32 28 0 0 27 -14 59 -30z m2792
-476 c99 -47 97 -192 -4 -236 -96 -43 -194 24 -186 125 4 48 25 82 67 107 39
24 78 25 123 4z m-273 -330 l57 -57 -230 -636 c-127 -350 -237 -652 -245 -671
-7 -19 -48 -130 -90 -245 l-76 -210 -37 -1 c-20 0 -55 -3 -78 -7 l-41 -7 -220
228 c-121 125 -237 246 -259 268 -21 23 -143 149 -270 280 -510 527 -464 475
-448 506 8 15 17 48 21 73 3 25 8 45 10 45 6 0 103 26 378 100 105 29 201 54
215 56 14 3 45 11 70 18 39 12 72 21 115 32 6 1 51 13 100 27 50 13 135 36
190 51 161 42 666 177 715 191 65 19 62 20 123 -41z m290 -302 c21 -103 58
-281 82 -397 24 -115 46 -221 48 -235 3 -14 13 -61 22 -105 9 -44 18 -87 20
-95 2 -8 15 -72 29 -141 15 -70 29 -137 31 -150 4 -19 93 -451 110 -534 9 -41
26 -122 30 -146 3 -13 13 -64 24 -114 l18 -90 -21 -15 c-11 -8 -40 -34 -64
-58 l-43 -43 -102 26 c-90 23 -132 34 -277 75 -63 18 -474 127 -502 134 -26 6
-28 10 -29 59 -1 28 -1 55 0 59 3 21 -44 123 -68 147 l-28 28 77 204 c42 112
79 211 82 219 51 138 502 1347 505 1353 12 21 21 -9 56 -181z m-2444 -10 c40
-21 71 -73 71 -117 0 -17 -8 -46 -18 -64 -65 -121 -257 -65 -246 71 4 50 25
83 67 108 40 25 82 25 126 2z m-304 -299 c13 -16 25 -33 25 -39 0 -6 -24 -63
-54 -125 -29 -63 -73 -154 -96 -204 -23 -49 -55 -117 -70 -150 -30 -65 -80
-172 -155 -330 -26 -55 -62 -131 -80 -170 -18 -38 -52 -110 -75 -160 -24 -49
-57 -122 -75 -161 l-33 -71 -43 1 c-49 2 -88 -9 -139 -40 l-34 -21 -181 141
c-99 78 -187 146 -195 153 -21 17 -669 520 -703 547 -56 42 -57 43 -42 73 8
15 17 46 21 68 l6 40 941 237 c518 130 946 237 950 237 4 1 19 -11 32 -26z
m474 -180 c46 -49 183 -191 305 -317 121 -125 246 -254 276 -285 30 -32 156
-162 280 -290 124 -128 228 -238 232 -245 4 -6 -5 -37 -20 -69 -19 -41 -32
-57 -47 -58 -41 -2 -233 -18 -285 -24 -19 -3 -69 -7 -110 -10 -41 -3 -95 -7
-120 -10 -25 -3 -74 -7 -110 -10 -36 -3 -85 -7 -110 -10 -25 -3 -81 -7 -125
-10 -44 -4 -91 -8 -105 -10 -14 -2 -63 -7 -110 -10 -47 -4 -101 -8 -120 -10
-19 -2 -71 -6 -115 -10 -44 -4 -96 -8 -115 -10 -19 -2 -69 -6 -110 -9 -41 -4
-91 -9 -110 -11 -19 -2 -75 -7 -125 -10 l-90 -6 -37 55 -38 56 81 172 c45 95
112 238 149 318 37 80 86 183 108 230 22 47 79 168 127 270 47 102 107 229
132 283 l46 97 51 0 c28 1 65 7 81 15 17 7 35 14 41 14 6 1 48 -38 93 -86z
m-2612 -165 c62 -62 51 -154 -25 -205 -121 -80 -266 93 -166 198 38 41 60 50
113 45 33 -3 51 -12 78 -38z m598 -787 c646 -500 606 -468 597 -500 -4 -14 -7
-56 -7 -92 0 -53 7 -78 31 -127 l31 -62 -40 -57 c-22 -32 -136 -197 -254 -366
-118 -170 -216 -314 -219 -321 -4 -10 -28 -13 -92 -10 l-87 3 -21 78 c-11 43
-39 150 -62 238 -23 88 -55 212 -72 275 -16 63 -66 257 -111 430 -45 173 -104
401 -131 505 -27 105 -51 197 -53 205 -10 42 -47 188 -52 205 -7 24 -60 63
542 -404z m3448 -279 c61 -55 61 -149 0 -204 -10 -9 -37 -21 -60 -26 -35 -8
-49 -6 -83 10 -100 50 -98 192 3 238 44 20 107 12 140 -18z m-2510 -181 c37
-14 76 -61 83 -99 10 -52 -19 -114 -64 -139 -20 -12 -48 -20 -62 -18 -14 1
-33 3 -43 4 -30 2 -85 64 -92 104 -5 27 -2 47 14 80 31 64 100 92 164 68z
m2147 -47 c25 -65 111 -144 174 -160 15 -3 28 -10 31 -14 4 -7 -340 -1230
-476 -1691 l-19 -66 -53 -8 c-28 -4 -59 -8 -67 -8 -15 -2 -53 37 -170 172 -30
35 -73 83 -95 106 -22 24 -60 67 -84 95 -25 29 -50 58 -55 64 -6 6 -43 47 -81
91 -39 44 -72 82 -75 85 -3 3 -53 59 -110 125 -58 66 -114 129 -125 141 -11
11 -45 50 -76 85 -73 83 -136 155 -175 199 -17 19 -53 60 -80 90 -27 31 -78
89 -114 129 -36 41 -73 83 -83 95 -10 12 -33 37 -50 56 -18 19 -58 65 -90 102
l-59 67 18 48 c9 26 20 51 23 55 3 4 42 10 86 13 44 3 96 7 115 9 19 3 76 8
125 11 50 4 103 8 120 10 16 2 61 7 100 10 38 3 95 8 125 10 104 10 155 14
230 20 41 3 91 7 110 10 19 2 69 7 110 10 78 6 143 11 233 20 28 3 79 7 112
10 33 3 83 7 110 10 28 2 86 7 130 11 44 3 81 7 82 8 1 0 22 2 47 4 42 3 47 0
56 -24z m790 -165 c63 -17 165 -44 225 -60 61 -16 182 -48 270 -72 l159 -44
16 -64 c8 -35 19 -69 22 -75 7 -10 -194 -207 -437 -430 -16 -15 -86 -79 -154
-143 -68 -64 -140 -131 -160 -150 -20 -18 -96 -90 -170 -160 -74 -69 -142
-133 -153 -143 -20 -17 -242 -225 -363 -340 -162 -154 -171 -160 -160 -106 8
35 139 503 156 553 8 25 128 445 173 605 157 563 181 639 206 650 14 6 38 21
53 34 l27 23 88 -23 c48 -13 139 -38 202 -55z m1035 -58 c41 -25 63 -68 61
-117 -4 -78 -57 -128 -133 -126 -137 2 -178 181 -58 250 31 17 97 14 130 -7z
m-3770 -266 c43 -49 81 -92 84 -95 4 -3 35 -39 71 -80 36 -41 70 -79 76 -85 6
-5 89 -100 185 -210 95 -110 177 -202 180 -205 3 -3 43 -48 89 -100 45 -52
101 -115 124 -140 22 -25 70 -79 106 -120 36 -41 85 -97 110 -125 371 -418
370 -418 364 -440 -10 -30 -11 -31 -62 -13 -26 9 -518 172 -1094 363 l-1048
348 5 37 c6 46 -18 142 -46 187 l-21 33 155 223 c248 356 276 398 325 470 45
68 46 68 81 61 57 -11 138 -6 168 10 32 17 18 28 148 -119z m-1041 -729 c76
-49 75 -171 -1 -222 -35 -23 -112 -24 -147 -1 -78 52 -75 178 6 227 38 23 105
21 142 -4z m2766 -902 c57 -34 80 -117 50 -178 -40 -80 -171 -91 -224 -19 -27
36 -32 102 -12 142 34 64 124 91 186 55z"/>
</g>
</svg>
